<svg width="368" height="298" viewBox="0 0 368 298" fill="none" xmlns="http://www.w3.org/2000/svg">
<path d="M101.993 244.065C114.463 256.566 129.28 266.48 145.593 273.236C161.906 279.993 179.394 283.459 197.051 283.435V292.659C197.05 293.101 197.137 293.54 197.307 293.948C197.477 294.357 197.727 294.727 198.042 295.038C198.357 295.349 198.731 295.594 199.141 295.76C199.552 295.925 199.992 296.006 200.434 296C278.942 294.237 342.285 230.898 344.061 152.373C344.067 151.93 343.986 151.49 343.821 151.079C343.655 150.668 343.41 150.294 343.099 149.978C342.787 149.663 342.416 149.413 342.007 149.243C341.598 149.072 341.159 148.985 340.716 148.986H331.493C331.493 74.7355 271.301 14.5435 197.051 14.5435V5.345C197.052 4.9018 196.965 4.46276 196.795 4.05354C196.625 3.64433 196.375 3.27316 196.059 2.96174C195.744 2.65033 195.37 2.40491 194.958 2.23985C194.547 2.07479 194.107 1.99339 193.664 2.00042C157.008 2.79845 121.982 17.306 95.4973 42.6606C95.1793 42.9676 94.9257 43.3351 94.7514 43.7414C94.5772 44.1477 94.4857 44.5847 94.4824 45.0268C94.4791 45.4689 94.5641 45.9072 94.7323 46.316C94.9005 46.7249 95.1487 47.0961 95.4621 47.4078L101.972 53.9314C89.4719 66.4038 79.56 81.2233 72.8054 97.5382C66.0508 113.853 62.5866 131.342 62.6119 149H53.4028C52.9597 148.999 52.5209 149.086 52.1119 149.257C51.7029 149.427 51.3319 149.677 51.0206 149.992C50.7093 150.308 50.4639 150.682 50.2986 151.093C50.1334 151.504 50.0517 151.944 50.0582 152.387C50.8611 189.038 65.3696 224.058 90.7219 250.539C91.0292 250.857 91.3968 251.111 91.8033 251.284C92.2097 251.458 92.6468 251.55 93.0889 251.553C93.5309 251.555 93.9692 251.47 94.3779 251.302C94.7866 251.133 95.1576 250.885 95.4691 250.571L101.993 244.065Z" fill="#FFE84D" stroke="white" stroke-width="2" stroke-linejoin="round"/>
<mask id="mask0" mask-type="alpha" maskUnits="userSpaceOnUse" x="23" y="2" width="322" height="294">
<path d="M101.993 244.065C114.463 256.566 129.28 266.48 145.593 273.236C161.906 279.993 179.394 283.459 197.051 283.435V292.659C197.05 293.101 197.137 293.54 197.307 293.948C197.478 294.357 197.727 294.727 198.042 295.038C198.357 295.349 198.731 295.594 199.142 295.76C199.552 295.925 199.992 296.006 200.434 296C278.942 294.237 342.285 230.898 344.061 152.373C344.068 151.93 343.986 151.49 343.821 151.079C343.656 150.668 343.41 150.294 343.099 149.978C342.788 149.663 342.417 149.413 342.008 149.243C341.599 149.072 341.16 148.985 340.717 148.986H331.494C331.494 74.7355 271.301 14.5435 197.051 14.5435V5.345C197.052 4.9018 196.966 4.46276 196.795 4.05354C196.625 3.64433 196.375 3.27316 196.06 2.96174C195.744 2.65033 195.37 2.40491 194.959 2.23985C194.547 2.07479 194.107 1.99339 193.664 2.00042C157.008 2.79845 121.982 17.306 95.4975 42.6606C95.1795 42.9676 94.9259 43.3351 94.7516 43.7414C94.5773 44.1477 94.4859 44.5847 94.4826 45.0268C94.4793 45.4689 94.5643 45.9072 94.7325 46.316C94.9007 46.7249 95.1488 47.0961 95.4623 47.4078L101.972 53.9314C89.472 66.4038 31.882 71.8623 25.1274 88.1772C18.3728 104.492 29.86 105.234 29.8853 122.892L40.6344 159.721C40.6344 159.721 53.5813 185.171 59.2751 200.427C66.1841 218.939 76.8236 236.022 90.7221 250.539C91.0294 250.857 91.397 251.111 91.8034 251.284C92.2099 251.458 92.6469 251.55 93.089 251.553C93.5311 251.555 93.9693 251.47 94.3781 251.302C94.7868 251.133 95.1578 250.885 95.4693 250.571L101.993 244.065Z" fill="#6EDAFF"/>
</mask>
<g mask="url(#mask0)">
<path d="M373.144 227.631L130.931 367.547L26.9635 99.0357C26.4066 97.5962 26.145 96.0594 26.1944 94.5168C26.2437 92.9742 26.603 91.4573 27.2508 90.0564C27.8987 88.6555 28.8218 87.3993 29.9652 86.3626C31.1086 85.3259 32.449 84.5299 33.9064 84.022L273.335 0.625914C276.149 -0.356257 279.235 -0.206957 281.941 1.04232C284.648 2.2916 286.763 4.54318 287.841 7.32213L373.144 227.631Z" fill="white" stroke="black" stroke-width="1.2" stroke-linecap="round" stroke-linejoin="round"/>
<path d="M293.343 21.5357L34.1955 117.722L26.9601 99.0427C26.4032 97.6033 26.1416 96.0665 26.1909 94.5238C26.2403 92.9812 26.5996 91.4643 27.2474 90.0634C27.8953 88.6625 28.8184 87.4063 29.9618 86.3697C31.1052 85.333 32.4456 84.537 33.903 84.0291L273.335 0.625914C276.149 -0.356257 279.235 -0.206957 281.941 1.04232C284.648 2.2916 286.763 4.54318 287.841 7.32213L293.343 21.5357Z" fill="black"/>
<path d="M54.1924 93.5659C55.6233 97.2665 53.9422 101.319 50.4179 102.588C46.8935 103.857 42.8194 101.908 41.3744 98.1757C39.9295 94.4435 41.6529 90.394 45.2054 89.1323C48.7579 87.8706 52.7439 89.8689 54.1924 93.5659Z" fill="white"/>
<path d="M71.3206 87.4054C72.7303 91.0637 71.1056 95.0391 67.6623 96.2973C64.219 97.5555 60.2295 95.5924 58.8022 91.9095C57.3748 88.2266 59.0418 84.23 62.5133 83C65.9847 81.77 69.9038 83.7507 71.3206 87.4054Z" fill="#FFE84D"/>
<path d="M88.0506 81.3894C89.4603 85.0018 87.8673 88.9209 84.5051 90.1473C81.1429 91.3738 77.2344 89.4425 75.8247 85.7842C74.4149 82.126 76.0291 78.2069 79.4195 77.0051C82.8099 75.8033 86.6514 77.7734 88.0506 81.3894Z" fill="#FFE84D"/>
<path d="M234.268 136.714L166.365 166.865L155.735 139.407L224.174 110.641L234.268 136.714Z" fill="#FFE84D"/>
<path d="M311.637 232.995L204.822 292.021L194.122 264.39L301.812 207.617L311.637 232.995Z" fill="#FFE84D"/>
<path d="M211.138 237.746L114.839 287.21L103.547 258.046L200.625 210.591L211.138 237.746Z" fill="#FFE84D"/>
<path d="M122.237 140.232L66.7566 163.023L55.4612 133.863L111.378 112.188L122.237 140.232Z" fill="#FFE84D"/>
<path d="M63.1831 144.327L73.0512 132.89L74.4257 136.439L67.1127 144.679L77.9994 145.673L79.4091 149.324L64.5083 147.802L63.1831 144.327Z" fill="black"/>
<path d="M83.6911 133.539L84.7484 135.886C85.0377 134.807 85.5749 133.811 86.317 132.976C87.0592 132.142 87.9859 131.492 89.0234 131.079C93.3689 129.362 98.088 131.763 100.033 136.785C101.979 141.807 100.15 146.885 95.8254 148.648C94.8302 149.063 93.7515 149.241 92.6756 149.165C91.5997 149.089 90.5565 148.762 89.6296 148.211L93.4218 158.001L90.1583 159.354L80.6426 134.751L83.6911 133.539ZM87.2155 141.941C88.5018 145.261 91.2755 146.751 94.1161 145.596C96.9567 144.44 97.9506 141.44 96.6748 138.142C95.3989 134.843 92.6253 133.391 89.8199 134.508C87.0146 135.625 85.9185 138.621 87.2014 141.951L87.2155 141.941Z" fill="black"/>
<path d="M105.961 138.579L104.573 134.994L111.477 127.015L101.062 125.93L99.7126 122.448L113.937 124.175L115.237 127.53L105.961 138.579Z" fill="black"/>
<path d="M123.453 134.674C122.896 133.236 123.453 131.921 124.735 131.407C126.018 130.892 127.259 131.463 127.816 132.894C128.373 134.325 127.816 135.597 126.558 136.112C125.299 136.626 123.995 136.076 123.453 134.674Z" fill="black"/>
<path d="M130.868 131.653C130.314 130.223 130.868 128.915 132.133 128.407C133.398 127.9 134.635 128.467 135.189 129.895C135.742 131.322 135.188 132.577 133.948 133.088C132.707 133.599 131.41 133.049 130.868 131.653Z" fill="black"/>
<path d="M138.209 128.665C137.659 127.255 138.209 125.944 139.456 125.443C140.704 124.943 141.923 125.507 142.48 126.924C143.037 128.34 142.48 129.592 141.257 130.096C140.034 130.6 138.737 130.053 138.209 128.665Z" fill="black"/>
<path d="M142.311 112.918L151.02 102.345L152.32 105.7L145.874 113.309L155.703 114.437L157.043 117.891L143.583 116.192L142.311 112.918Z" fill="black"/>
<path d="M162.213 121.158L162.333 93.0655L165.388 91.8778L165.318 119.889L162.213 121.158Z" fill="black"/>
<path d="M172.363 98.507L173.346 100.717C173.882 98.6867 175.13 97.0867 177.047 96.3289C180.874 94.817 185.114 97.1466 186.94 101.859C188.765 106.571 187.236 111.254 183.415 112.812C182.522 113.175 181.554 113.316 180.593 113.223C179.633 113.13 178.71 112.805 177.903 112.277L181.459 121.461L178.591 122.652L169.656 99.5749L172.363 98.507ZM175.641 106.394C176.85 109.51 179.341 110.951 181.837 109.936C184.332 108.921 185.167 106.144 183.951 103.05C182.735 99.9555 180.265 98.5493 177.794 99.5255C175.324 100.502 174.435 103.279 175.641 106.394V106.394Z" fill="black"/>
<path d="M192.251 103.645L190.947 100.28L196.938 92.9879L187.655 91.772L186.39 88.5015L199.077 90.3905L200.297 93.5413L192.251 103.645Z" fill="black"/>
<path d="M79.335 186.034L89.0797 174.241L90.4542 177.79L83.2434 186.291L94.0279 187.024L95.4376 190.675L80.6707 189.509L79.335 186.034Z" fill="black"/>
<path d="M98.2711 171.091L99.057 170.756L100.421 174.28L106.025 171.88L107.212 174.946L101.616 177.36L104.819 185.642C105.563 187.56 106.712 187.972 108.273 187.285C109.043 186.901 109.729 186.37 110.293 185.72L112.16 188.289C111.275 189.375 110.151 190.242 108.876 190.823C105.75 192.208 103.152 191.105 101.88 187.813L98.3733 178.759L95.5292 179.986L95.1768 179.056L98.2711 171.091Z" fill="black"/>
<path d="M108.918 170.639L111.956 169.339L113.013 171.58C113.133 170.6 113.512 169.669 114.111 168.883C114.71 168.098 115.507 167.486 116.421 167.112C116.929 166.896 117.466 166.76 118.014 166.706L118.91 170.305C118.338 170.362 117.779 170.51 117.253 170.742C115.139 171.658 114.011 174.16 115.248 177.35L118.649 186.139L115.477 187.549L108.918 170.639Z" fill="black"/>
<path d="M126.17 177.195L124.785 173.625L131.544 165.434L121.289 164.588L119.942 161.117L133.955 162.526L135.249 165.867L126.17 177.195Z" fill="black"/>
<path d="M143.358 172.856C142.805 171.425 143.358 170.086 144.606 169.54C145.853 168.994 147.094 169.54 147.647 170.967C148.2 172.395 147.647 173.681 146.424 174.231C145.201 174.78 143.901 174.255 143.358 172.856Z" fill="black"/>
<path d="M150.646 169.642C150.096 168.232 150.646 166.89 151.876 166.35C153.106 165.811 154.343 166.35 154.889 167.76C155.436 169.17 154.911 170.46 153.684 171.006C152.458 171.552 151.185 171.034 150.646 169.642Z" fill="black"/>
<path d="M157.861 166.463C157.311 165.053 157.861 163.728 159.073 163.192C160.285 162.657 161.512 163.192 162.058 164.602C162.604 166.012 162.083 167.284 160.87 167.823C159.658 168.363 158.396 167.848 157.861 166.463Z" fill="black"/>
<path d="M161.825 150.526L170.351 139.692L171.644 143.037L165.332 150.847L175.017 151.745L176.349 155.189L163.094 153.8L161.825 150.526Z" fill="black"/>
<path d="M193.77 152.877L192.804 150.709C192.595 151.7 192.156 152.629 191.523 153.419C190.889 154.209 190.079 154.84 189.157 155.259C185.28 156.972 180.987 154.741 179.119 149.913C177.251 145.084 178.844 140.327 182.732 138.663C183.61 138.284 184.567 138.124 185.521 138.198C186.474 138.272 187.396 138.576 188.205 139.086L184.251 128.866L187.13 127.65L196.438 151.686L193.77 152.877ZM182.14 148.595C183.352 151.731 185.879 153.116 188.353 152.027C190.827 150.938 191.68 148.08 190.468 144.979C189.255 141.877 186.792 140.492 184.293 141.571C181.794 142.649 180.931 145.476 182.147 148.602L182.14 148.595Z" fill="black"/>
<path d="M193.118 126.11C194.175 125.658 195.285 126.198 195.754 127.407C196.223 128.615 195.803 129.835 194.739 130.289C193.675 130.744 192.586 130.166 192.113 128.95C191.641 127.734 192.078 126.55 193.118 126.11ZM194.527 133.951L197.347 132.746L203.483 148.588L200.663 149.828L194.527 133.951Z" fill="black"/>
<path d="M199.631 131.766L202.746 130.43L211.05 140.75L210.116 127.273L213.023 126.025L213.978 143.939L210.873 145.314L199.631 131.766Z" fill="black"/>
<path d="M220.343 135.893L219.053 132.563L224.819 125.161L215.793 124.146L214.542 120.908L226.877 122.529L228.086 125.644L220.343 135.893Z" fill="black"/>
<path d="M95.4834 227.741L105.091 215.61L106.465 219.159L99.3566 227.924L110.039 228.393L111.449 232.044L96.8226 231.233L95.4834 227.741Z" fill="black"/>
<path d="M111.103 208.593C112.319 208.036 113.549 208.561 114.053 209.862C114.311 210.451 114.328 211.117 114.101 211.719C113.875 212.32 113.423 212.81 112.841 213.083C111.653 213.629 110.405 213.083 109.901 211.765C109.644 211.184 109.626 210.526 109.851 209.932C110.076 209.339 110.526 208.857 111.103 208.593V208.593ZM112.513 217.108L115.724 215.624L122.311 232.639L119.118 234.162L112.513 217.108Z" fill="black"/>
<path d="M126.149 225.076L124.739 221.46L131.576 212.882L121.2 212.325L119.84 208.801L134.011 209.819L135.322 213.199L126.149 225.076Z" fill="black"/>
<path d="M143.534 220.121C142.974 218.672 143.534 217.302 144.796 216.692C146.058 216.082 147.312 216.614 147.869 218.059C148.426 219.504 147.887 220.836 146.632 221.436C145.377 222.035 144.08 221.534 143.534 220.121Z" fill="black"/>
<path d="M150.904 216.618C150.347 215.176 150.904 213.798 152.148 213.213C153.392 212.628 154.636 213.139 155.193 214.577C155.749 216.015 155.214 217.337 153.973 217.929C152.733 218.521 151.45 218.024 150.904 216.618Z" fill="black"/>
<path d="M158.195 213.143C157.638 211.708 158.195 210.345 159.422 209.763C160.648 209.181 161.889 209.696 162.439 211.123C162.988 212.551 162.463 213.869 161.237 214.454C160.01 215.039 158.738 214.553 158.195 213.143Z" fill="black"/>
<path d="M162.202 196.734L170.809 185.406L172.12 188.79L165.741 196.959L175.528 197.593L176.878 201.076L163.485 200.046L162.202 196.734Z" fill="black"/>
<path d="M174.442 178.692L177.368 177.36L181.399 187.768C181.634 186.775 182.089 185.848 182.73 185.055C183.371 184.262 184.182 183.624 185.103 183.186C188.98 181.396 193.259 183.574 195.113 188.363C196.966 193.153 195.437 198.104 191.588 199.941C190.687 200.375 189.69 200.574 188.691 200.516C187.692 200.459 186.724 200.148 185.879 199.613L186.651 201.949L183.944 203.243L174.442 178.692ZM183.701 193.717C184.927 196.889 187.451 198.235 189.974 197.04C192.498 195.845 193.329 192.91 192.11 189.762C190.89 186.615 188.371 185.301 185.879 186.46C183.387 187.62 182.474 190.548 183.701 193.717V193.717Z" fill="black"/>
<path d="M200.487 189.907L199.166 186.488L205.199 178.569L195.832 177.84L194.545 174.516L207.37 175.75L208.611 178.953L200.487 189.907Z" fill="black"/>
<path d="M125.105 249.609L128.277 248.048L132.401 258.695C132.665 257.71 133.135 256.793 133.78 256.004C134.424 255.214 135.229 254.57 136.14 254.113C139.368 252.506 142.991 253.542 144.792 258.194L148.726 268.355L145.585 269.962L141.839 260.245C140.743 257.426 138.699 256.721 136.686 257.743C134.759 258.705 133.285 260.954 134.547 264.207L138.23 273.722L135.058 275.34L125.105 249.609Z" fill="black"/>
<path d="M148.109 244.361L148.859 243.988L150.206 247.466L155.541 244.812L156.715 247.84L151.383 250.501L154.555 258.674C155.288 260.566 156.391 260.933 157.878 260.175C158.617 259.749 159.267 259.184 159.792 258.511L161.61 261.01C160.788 262.129 159.722 263.047 158.495 263.696C155.52 265.225 153.022 264.231 151.763 260.982L148.303 252.044L145.596 253.401L145.243 252.485L148.109 244.361Z" fill="black"/>
<path d="M158.298 243.452L161.117 242.042L161.963 243.861C162.351 242.148 163.235 240.629 164.966 239.769C166.777 238.867 168.701 238.983 170.252 240.315C170.605 238.271 171.602 236.463 173.628 235.455C176.448 234.045 179.528 235.103 181.142 239.251L185.174 249.665L182.2 251.191L178.249 240.971C177.375 238.715 175.845 238.151 174.256 238.934C172.666 239.716 171.616 241.401 172.571 243.868L176.529 254.088L173.512 255.636L169.554 245.355C168.673 243.089 167.154 242.493 165.547 243.3C163.94 244.107 162.855 245.845 163.841 248.393L167.785 258.575L164.758 260.126L158.298 243.452Z" fill="black"/>
<path d="M179.778 222.799L182.714 221.358L192.265 246.028L189.35 247.522L179.778 222.799Z" fill="black"/>
<path d="M195.666 238.708L194.323 235.237L200.48 226.909L190.922 226.454L189.618 223.081L202.658 223.945L203.916 227.194L195.666 238.708Z" fill="black"/>
<path d="M214.419 218.077L222.387 206.887L223.66 210.179L217.756 218.25L226.976 218.743L228.287 222.13L215.667 221.298L214.419 218.077Z" fill="black"/>
<path d="M230.137 203.775L230.8 203.447L232.065 206.714L236.781 204.367L237.884 207.215L233.189 209.573L236.164 217.256C236.869 219.035 237.845 219.402 239.16 218.732C239.816 218.351 240.388 217.84 240.841 217.231L242.508 219.599C241.802 220.613 240.866 221.445 239.776 222.028C237.144 223.374 234.899 222.38 233.715 219.339L230.462 210.937L228.072 212.135L227.737 211.275L230.137 203.775Z" fill="black"/>
<path d="M254.825 213.96L253.884 211.846C253.451 213.908 252.288 215.592 250.536 216.491C246.938 218.338 242.871 216.294 241.049 211.585C239.227 206.877 240.651 202.098 244.266 200.307C245.068 199.898 245.962 199.702 246.861 199.739C247.761 199.775 248.635 200.042 249.401 200.515L245.525 190.548L248.207 189.234L257.289 212.688L254.825 213.96ZM243.865 210.168C245.049 213.227 247.438 214.503 249.74 213.34C252.041 212.177 252.799 209.305 251.622 206.263C250.445 203.222 248.097 201.96 245.785 203.127C243.473 204.293 242.681 207.109 243.865 210.168V210.168Z" fill="black"/>
<path d="M260.274 205.865L258.994 202.563L264.485 194.809L255.763 194.196L254.519 190.985L266.445 192.043L267.643 195.133L260.274 205.865Z" fill="black"/>
<path d="M141.053 290.787L144.197 289.134L148.426 300.06C148.692 298.957 149.186 297.922 149.875 297.02C150.565 296.119 151.435 295.372 152.429 294.826C156.581 292.613 161.152 294.636 163.098 299.654C165.043 304.673 163.362 310.125 159.221 312.395C158.294 312.931 157.245 313.219 156.175 313.232C155.105 313.245 154.049 312.982 153.11 312.469L153.917 314.936L151.006 316.532L141.053 290.787ZM150.84 306.294C152.126 309.614 154.812 310.876 157.536 309.403C160.261 307.93 161.163 304.701 159.883 301.402C158.604 298.104 155.922 296.877 153.24 298.312C150.558 299.746 149.554 302.967 150.84 306.287V306.294Z" fill="black"/>
<path d="M163.323 289.377L166.227 287.83L167.263 290.047C167.361 289.041 167.706 288.075 168.268 287.235C168.83 286.395 169.592 285.707 170.485 285.233C170.963 284.976 171.48 284.796 172.014 284.701L172.924 288.317C172.367 288.419 171.83 288.611 171.334 288.884C169.304 289.973 168.261 292.613 169.491 295.785L172.878 304.532L169.836 306.185L163.323 289.377Z" fill="black"/>
<path d="M199.458 272.757L207.73 260.866L209.034 264.235L202.908 272.817L212.424 272.996L213.767 276.461L200.727 276.056L199.458 272.757Z" fill="black"/>
<path d="M217.471 274.484L220.072 272.203C221.157 273.895 222.585 274.255 224.301 273.317C225.848 272.475 226.588 271.167 226.025 269.708C225.461 268.249 223.843 268.817 221.989 269.391C219.575 270.149 216.749 270.892 215.335 267.245C214.225 264.376 215.688 261.074 218.86 259.382C221.75 257.842 224.167 258.423 225.986 260.845L223.473 263.054C222.504 261.645 221.32 261.394 219.927 262.138C218.401 262.959 217.704 264.316 218.165 265.518C218.733 266.98 220.223 266.49 221.986 265.93C224.453 265.151 227.392 264.224 228.816 267.907C229.954 270.847 229.013 274.068 225.327 276.091C222.32 277.751 219.487 277.451 217.471 274.484Z" fill="black"/>
<path d="M228.664 250.501L229.337 250.148L230.617 253.461L235.399 250.909L236.516 253.792L231.737 256.355L234.751 264.136C235.456 265.937 236.457 266.283 237.789 265.546C238.455 265.133 239.034 264.593 239.491 263.956L241.183 266.332C240.468 267.39 239.519 268.269 238.409 268.901C235.745 270.367 233.475 269.43 232.27 266.335L228.96 257.842L226.536 259.142L226.183 258.272L228.664 250.501Z" fill="black"/>
<path d="M237.87 249.595L240.464 248.213L241.433 250.328C241.63 248.453 242.525 246.804 244.252 245.894C244.68 245.665 245.144 245.509 245.623 245.433L246.497 248.841C246.003 248.923 245.526 249.09 245.087 249.334C243.272 250.307 242.377 252.753 243.537 255.752L246.737 264.016L244.027 265.504L237.87 249.595Z" fill="black"/>
<path d="M263.206 245.475C265.018 250.155 263.537 255.121 259.664 257.246C255.791 259.371 251.558 257.493 249.74 252.763C247.921 248.034 249.475 243.057 253.366 240.981C257.257 238.906 261.405 240.826 263.206 245.475ZM252.549 251.241C253.74 254.314 256.154 255.53 258.501 254.247C260.848 252.964 261.627 250.018 260.443 246.969C259.259 243.921 256.877 242.722 254.529 243.984C252.182 245.246 251.357 248.168 252.549 251.241Z" fill="black"/>
<path d="M263.178 236.09L265.617 234.786L266.47 236.671C266.889 234.75 267.915 233.221 269.504 232.375C272.172 230.965 275.242 231.934 276.905 236.192L280.5 245.475L277.906 246.885L274.47 238.017C273.473 235.434 271.735 234.786 270.072 235.677C268.482 236.53 267.298 238.525 268.461 241.528L271.827 250.222L269.222 251.632L263.178 236.09Z" fill="black"/>
<path d="M283.02 225.164C283.786 224.745 284.65 224.54 285.523 224.57C286.395 224.6 287.244 224.865 287.979 225.337L287.305 223.222L289.653 221.971L295.471 237.002C297.124 241.267 295.968 245.524 292.215 247.611C288.803 249.507 285.871 248.428 284.31 245.641L286.689 243.582C287.665 245.256 289.216 245.697 291.105 244.668C293.279 243.466 294.072 241.235 293.061 238.624L292.194 236.379C291.764 238.328 290.692 239.924 289.075 240.812C285.652 242.687 281.822 240.77 280.07 236.231C278.318 231.691 279.584 227 283.02 225.164ZM288.306 237.669C290.463 236.491 291.168 233.725 290.051 230.835C288.934 227.945 286.689 226.736 284.525 227.896C282.361 229.055 281.61 231.85 282.763 234.786C283.915 237.721 286.118 238.87 288.306 237.669Z" fill="black"/>
<path d="M298.351 230.412L297.096 227.173L302.266 219.441L293.921 218.979L292.701 215.832L304.113 216.692L305.29 219.726L298.351 230.412Z" fill="black"/>
</g>
<path d="M330.665 134.032C330.254 130.301 329.689 126.616 328.97 122.976C320.187 105.676 316.039 81.4282 307.204 66.048C302.936 58.6335 296.476 52.7236 288.712 49.1312C277.654 43.9962 265.975 40.3235 253.969 38.2058C234.268 34.7379 220.815 36.0912 210.126 38.3151C207.018 38.9666 204.074 40.2388 201.47 42.0556C198.866 43.8724 196.656 46.1963 194.971 48.8881C188.011 59.958 178.245 77.5972 177.544 81.7771" fill="#FFE84D"/>
<path d="M328.97 122.976C320.187 105.676 316.039 81.4282 307.204 66.048C302.936 58.6335 296.476 52.7236 288.712 49.1312C277.654 43.9962 265.975 40.3235 253.969 38.2058C234.268 34.7379 220.815 36.0912 210.126 38.3151C207.018 38.9666 204.074 40.2388 201.47 42.0556C198.866 43.8724 196.656 46.1963 194.971 48.8881C188.011 59.958 178.245 77.5972 177.544 81.7771" stroke="black" stroke-width="1.2" stroke-linecap="round" stroke-linejoin="round"/>
<path d="M337.985 149H331.493C331.488 144.427 331.253 139.857 330.789 135.308C325.224 140.457 318.217 149.684 311.757 160.895C300.804 179.866 295.524 197.326 299.961 199.888C304.398 202.45 316.878 189.149 327.835 170.178C332.223 162.576 335.677 155.235 337.985 149Z" fill="black"/>
<path d="M202.612 93.9148C198.203 103.519 197.907 109.45 200.498 111.001C205.618 114.074 219.451 108.439 231.487 93.9148L219.444 77.9602L202.612 93.9148Z" fill="#FFE84D" stroke="black" stroke-width="1.2" stroke-linecap="round" stroke-linejoin="round"/>
<path d="M149.543 111.043L159.732 104.252L163.947 112.344L156.941 116.978L149.543 111.043Z" fill="#FFE84D" stroke="black" stroke-width="1.2" stroke-linecap="round" stroke-linejoin="round"/>
<path d="M188.296 108.721L172.744 81.7771L159.485 102.437C158.526 103.984 158.999 107.128 160.697 109.887C162.273 112.449 164.401 113.856 165.875 113.468L188.296 108.721Z" fill="#FFE84D" stroke="black" stroke-width="1.2" stroke-linecap="round" stroke-linejoin="round"/>
<path d="M242.476 30.8577L176.448 78.6052L174.59 79.9445C174.244 80.1366 173.924 80.3736 173.639 80.6493C170.199 83.8952 171.147 92.5263 175.754 99.9591C180.36 107.392 186.351 110.867 190.503 107.67L259.809 59.1651L242.476 30.8577Z" fill="black" stroke="black" stroke-width="1.2" stroke-linecap="round" stroke-linejoin="round"/>
<path d="M101.972 53.9314L95.4622 47.4078C95.1487 47.0961 94.9006 46.7249 94.7324 46.316C94.5642 45.9072 94.4792 45.4689 94.4825 45.0268C94.4858 44.5847 94.5773 44.1477 94.7515 43.7414C94.9258 43.3351 95.1794 42.9676 95.4974 42.6606C121.982 17.306 157.008 2.79845 193.664 2.00042C194.107 1.99339 194.547 2.07479 194.959 2.23985C195.37 2.40491 195.744 2.65033 196.06 2.96174C196.375 3.27316 196.625 3.64433 196.795 4.05354C196.965 4.46276 197.052 4.9018 197.051 5.345V14.5435C223.729 14.5435 248.592 22.3138 269.5 35.7148" stroke="white" stroke-width="2" stroke-linejoin="round"/>
<path d="M202.612 100.773C199.088 104.033 190.52 100.273 185.833 92.7835C181.146 85.2944 180.078 75.3029 183.553 72.0253" stroke="#FFE84D" stroke-width="1.2" stroke-linecap="round" stroke-linejoin="round"/>
<path d="M259.238 16.207L244.499 27.1324C244.052 27.3826 243.635 27.6842 243.258 28.0311C238.744 32.1828 239.579 42.3787 245.133 50.8582C250.688 59.3377 258.984 63.003 263.587 58.8796L280.01 47.2317L259.238 16.207Z" fill="black" stroke="black" stroke-width="1.2" stroke-linecap="round" stroke-linejoin="round"/>
<path d="M265.719 58.7774C260.253 62.8374 251.125 59.9721 245.126 50.6397C239.219 41.4518 238.747 32.1722 243.258 28.0206L246.761 25.4055" stroke="#FFE84D" stroke-width="1.2" stroke-linecap="round" stroke-linejoin="round"/>
<path d="M278.058 23.9569C283.855 32.5598 284.733 43.0059 280.01 47.2175C275.288 51.4291 266.864 47.8272 261.159 39.2525C255.453 30.6778 254.628 20.4256 259.238 16.1964C263.848 11.9672 272.31 15.3999 278.058 23.9569Z" fill="white" stroke="black" stroke-width="1.2" stroke-linecap="round" stroke-linejoin="round"/>
<path d="M340.745 149H331.493C331.49 143.257 331.122 137.519 330.39 131.823L255.717 88.054C230.053 72.5892 206.327 63.9159 198.824 75.2007C194.122 82.2494 217.337 99.3529 231.339 113.7C234.585 117.008 237.362 120.744 239.593 124.806C263.654 168.814 303.768 189.921 322.295 203.75C328.403 187.366 341.28 170.83 340.745 149Z" fill="#FFE84D"/>
<path d="M340.745 149H331.493C331.49 143.257 331.122 137.519 330.39 131.823L255.717 88.054C230.053 72.5892 206.327 63.9159 198.824 75.2007C194.122 82.2494 215.166 95.7934 228.301 116.978C229.58 119.043 242.282 136.912 262.103 157.91C279.087 175.905 301.424 193.037 322.295 203.758C328.402 187.366 341.28 170.83 340.745 149Z" fill="#FFE84D"/>
<path d="M238.028 118.211C220.442 94.884 200.642 86.4608 198.824 75.2147L198.559 75.6905C198.52 75.7751 198.475 75.8702 198.432 75.9654C195.56 83.222 215.617 96.5334 228.301 116.992C229.58 119.057 242.282 136.926 262.103 157.924C277.853 174.611 298.202 190.548 317.72 201.329C319.35 201.933 320.892 202.755 322.302 203.772C322.924 202.099 323.549 200.422 324.177 198.742C254.11 154.16 244.978 127.431 238.028 118.211Z" fill="white"/>
<path d="M322.295 203.758C304.321 194.333 282.784 178.601 264.031 159.862C243.632 139.481 229.609 117.447 216.382 101.954C202.612 85.823 196.184 78.6299 198.824 75.2007C208.265 62.9361 230.053 72.5892 255.717 88.0539C261.19 90.5914 263.689 84.6671 263.96 83.86C265.296 79.8775 261.19 70.679 248.453 66.8833" stroke="black" stroke-width="1.2" stroke-linecap="round" stroke-linejoin="round"/>
<path d="M344.061 152.373C344.068 151.93 343.986 151.49 343.821 151.079C343.655 150.668 343.41 150.294 343.099 149.978C342.787 149.663 342.416 149.413 342.007 149.243C341.598 149.072 341.16 148.985 340.716 148.986H337.985C335.677 155.235 332.209 162.576 327.828 170.164C316.874 189.135 304.395 202.439 299.954 199.874L326.788 218.235C337.646 197.946 343.564 175.38 344.061 152.373V152.373Z" fill="black"/>
<path d="M56.1165 191C62.7077 213.138 74.4931 233.588 90.722 250.539C91.0293 250.857 91.3969 251.111 91.8034 251.284C92.2098 251.458 92.6468 251.55 93.0889 251.553C93.531 251.555 93.9693 251.47 94.378 251.302C94.7867 251.133 95.1577 250.885 95.4692 250.571L101.993 244.065C114.463 256.566 129.28 266.48 145.593 273.236C161.906 279.993 179.394 283.459 197.051 283.435V292.659C197.05 293.101 197.137 293.54 197.307 293.948C197.477 294.357 197.727 294.727 198.042 295.038C198.357 295.349 198.731 295.594 199.142 295.76C199.552 295.925 199.992 296.006 200.434 296C278.942 294.237 342.285 230.898 344.061 152.373C344.068 151.93 343.986 151.49 343.821 151.079C343.655 150.668 343.41 150.294 343.099 149.978C342.787 149.663 342.416 149.413 342.007 149.243C341.598 149.072 341.16 148.985 340.716 148.986H331.493C331.493 133.208 328.775 118.065 323.782 104" stroke="white" stroke-width="2" stroke-linejoin="round"/>
</svg>
